<?xml version="1.0" encoding="UTF-8"?>
<svg width="24px" height="24px" viewBox="0 0 24 24" version="1.1" xmlns="http://www.w3.org/2000/svg" xmlns:xlink="http://www.w3.org/1999/xlink">
    <!-- Generator: Sketch 43.2 (39069) - http://www.bohemiancoding.com/sketch -->
    <title>iconmonstr-instagram-11</title>
    <desc>Created with Sketch.</desc>
    <defs>
        <polygon id="path-1" points="0 23.94 24 23.94 24 0 0 0"></polygon>
    </defs>
    <g id="Welcome" stroke="none" stroke-width="1" fill="none" fill-rule="evenodd" opacity="0.393455616">
        <g id="Desktop-HD-Copy-4" transform="translate(-1218.000000, -108.000000)">
            <g id="Group" transform="translate(1174.000000, 105.000000)">
                <g id="iconmonstr-instagram-11" transform="translate(44.000000, 3.000000)">
                    <mask id="mask-2" fill="white">
                        <use xlink:href="#path-1"></use>
                    </mask>
                    <g id="Clip-2"></g>
                    <path d="M18.406,4.155 C17.61,4.155 16.966,4.799 16.966,5.595 C16.966,6.39 17.61,7.035 18.406,7.035 C19.201,7.035 19.846,6.39 19.846,5.595 C19.846,4.799 19.201,4.155 18.406,4.155 Z M12,16 C9.791,16 8,14.21 8,12 C8,9.791 9.791,8 12,8 C14.209,8 16,9.791 16,12 C16,14.21 14.209,16 12,16 Z M12,5.838 C8.597,5.838 5.838,8.597 5.838,12 C5.838,15.403 8.597,18.162 12,18.162 C15.403,18.162 18.162,15.403 18.162,12 C18.162,8.597 15.403,5.838 12,5.838 Z M12,0 C8.741,0 8.333,0.014 7.053,0.072 C2.694,0.272 0.272,2.69 0.072,7.053 C0.014,8.333 0,8.741 0,12 C0,15.26 0.014,15.668 0.072,16.948 C0.272,21.307 2.69,23.728 7.053,23.928 C8.333,23.986 8.741,24 12,24 C15.259,24 15.668,23.986 16.948,23.928 C21.302,23.729 23.73,21.31 23.928,16.948 C23.986,15.668 24,15.26 24,12 C24,8.741 23.986,8.333 23.928,7.053 C23.731,2.699 21.31,0.272 16.948,0.072 C15.668,0.014 15.259,0 12,0 Z M12,2.163 C15.204,2.163 15.584,2.175 16.85,2.232 C20.102,2.38 21.62,3.923 21.769,7.151 C21.826,8.416 21.838,8.796 21.838,12 C21.838,15.205 21.826,15.584 21.769,16.849 C21.62,20.074 20.104,21.62 16.85,21.769 C15.584,21.826 15.205,21.838 12,21.838 C8.796,21.838 8.416,21.826 7.151,21.769 C3.891,21.619 2.38,20.07 2.232,16.849 C2.175,15.584 2.162,15.205 2.162,12 C2.162,8.796 2.175,8.416 2.232,7.151 C2.381,3.924 3.896,2.38 7.151,2.232 C8.417,2.175 8.796,2.163 12,2.163 L12,2.163 Z" id="Fill-1" fill="#1B1819" mask="url(#mask-2)"></path>
                </g>
            </g>
        </g>
    </g>
</svg>