<?xml version="1.0" encoding="UTF-8"?>
<svg width="24px" height="20px" viewBox="0 0 24 20" version="1.1" xmlns="http://www.w3.org/2000/svg" xmlns:xlink="http://www.w3.org/1999/xlink">
    <!-- Generator: Sketch 43.2 (39069) - http://www.bohemiancoding.com/sketch -->
    <title>iconmonstr-twitter-1</title>
    <desc>Created with Sketch.</desc>
    <defs></defs>
    <g id="Welcome" stroke="none" stroke-width="1" fill="none" fill-rule="evenodd" opacity="0.393455616">
        <g id="Desktop-HD-Copy-4" transform="translate(-1262.000000, -109.000000)" fill="#1B1819">
            <g id="Group" transform="translate(1174.000000, 105.000000)">
                <path d="M112,6.805 C111.117,7.196 110.168,7.461 109.172,7.58 C110.188,6.971 110.97,6.006 111.337,4.856 C110.386,5.42 109.332,5.83 108.21,6.051 C107.313,5.094 106.032,4.496 104.616,4.496 C101.438,4.496 99.102,7.462 99.819,10.541 C95.728,10.336 92.1,8.376 89.671,5.397 C88.381,7.61 89.002,10.505 91.194,11.971 C90.388,11.945 89.628,11.724 88.965,11.355 C88.911,13.636 90.546,15.769 92.914,16.245 C92.221,16.433 91.462,16.476 90.69,16.329 C91.316,18.285 93.135,19.709 95.29,19.749 C93.22,21.371 90.612,22.096 88,21.788 C90.179,23.184 92.768,24 95.548,24 C104.689,24 109.854,16.279 109.543,9.353 C110.505,8.659 111.34,7.792 112,6.805" id="iconmonstr-twitter-1"></path>
            </g>
        </g>
    </g>
</svg>