<?xml version="1.0" encoding="UTF-8"?>
<svg width="1002px" height="224px" viewBox="0 0 1002 224" version="1.1" xmlns="http://www.w3.org/2000/svg" xmlns:xlink="http://www.w3.org/1999/xlink">
    <!-- Generator: Sketch 43.2 (39069) - http://www.bohemiancoding.com/sketch -->
    <title>1-black</title>
    <desc>Created with Sketch.</desc>
    <defs></defs>
    <g id="Welcome" stroke="none" stroke-width="1" fill="none" fill-rule="evenodd">
        <g id="1-black" fill="#1A1918">
            <path d="M30.922,103.935 L95.18,103.935 C93.973,82.677 82.619,69.873 64.017,69.873 C43.966,69.873 33.579,83.643 30.922,103.935 Z M0,115.772 C0,77.363 25.848,47.648 64.017,47.648 C82.859,47.648 97.596,54.171 108.467,65.766 C121.028,79.053 127.068,99.345 126.827,123.262 L30.439,123.262 C32.612,145.487 44.45,160.464 65.949,160.464 C80.686,160.464 90.349,154.184 94.456,143.554 L124.411,143.554 C118.13,166.745 97.354,183.898 65.708,183.898 C24.639,183.898 0,153.941 0,115.772 L0,115.772 Z" id="Fill-1"></path>
            <path d="M128.016,51.031 L160.147,51.031 L178.989,111.182 C184.546,128.576 189.86,154.424 189.86,154.424 L190.586,154.424 C190.586,154.424 195.659,128.576 201.214,111.182 L220.782,51.031 L251.946,51.031 L206.287,180.032 L172.709,180.032 L128.016,51.031" id="Fill-2"></path>
            <path d="M277.295,103.935 L341.553,103.935 C340.345,82.677 328.991,69.873 310.39,69.873 C290.339,69.873 279.952,83.643 277.295,103.935 Z M246.373,115.772 C246.373,77.363 272.221,47.648 310.39,47.648 C329.232,47.648 343.969,54.171 354.84,65.766 C367.401,79.053 373.441,99.345 373.2,123.262 L276.811,123.262 C278.985,145.487 290.822,160.464 312.323,160.464 C327.058,160.464 336.722,154.184 340.829,143.554 L370.784,143.554 C364.503,166.745 343.726,183.898 312.081,183.898 C271.012,183.898 246.373,153.941 246.373,115.772 L246.373,115.772 Z" id="Fill-3"></path>
            <path d="M414.771,77.094 L415.495,77.094 C423.709,60.424 436.029,51.97 452.457,51.97 C456.08,51.97 458.497,52.21 460.67,53.177 L460.67,80.717 L459.704,80.717 C456.804,79.992 454.39,79.751 451.249,79.751 C430.956,79.509 415.738,93.279 415.738,118.161 L415.738,182.904 L385.057,182.904 L385.057,53.903 L414.771,53.903 L414.771,77.094" id="Fill-4"></path>
            <path d="M483.454,222.552 L483.454,197.665 L485.145,197.665 C486.352,198.392 494.806,198.877 497.948,198.877 C508.337,198.877 514.133,195.011 516.79,184.622 C516.79,182.206 517.999,170.128 515.342,163.121 L470.891,51.031 L503.505,51.031 L524.762,110.941 C530.318,126.885 535.632,151.043 535.632,151.043 L536.117,151.043 C536.117,151.043 541.916,126.643 547.23,110.941 L567.763,51.031 L598.685,51.031 L548.679,187.279 C538.05,215.783 526.937,224 505.92,224 C502.053,224 485.628,223.273 483.454,222.552" id="Fill-5"></path>
            <path d="M692.911,115.772 C692.911,89.924 681.555,71.565 658.847,71.565 C638.072,71.565 627.686,90.166 627.686,115.531 C627.686,141.38 638.072,159.015 658.847,159.015 C681.555,159.015 692.911,141.139 692.911,115.772 Z M596.522,115.772 C596.522,74.705 619.712,47.648 652.567,47.648 C670.442,47.648 683.731,56.104 692.187,69.632 L692.669,69.632 C692.187,62.626 691.702,52.481 691.702,42.817 L691.702,0.299 L722.381,0.299 L722.381,180.032 L692.669,180.032 L692.669,161.188 L692.187,161.188 C684.213,176.168 670.203,184.14 652.567,184.14 C618.506,184.14 596.522,157.807 596.522,115.772 L596.522,115.772 Z" id="Fill-6"></path>
            <path d="M820.697,133.166 L820.697,114.082 C814.659,117.948 804.994,120.605 795.574,122.536 C776.729,126.16 765.858,130.026 765.858,144.279 C765.858,158.048 776.248,162.155 788.085,162.155 C809.102,162.155 820.697,147.66 820.697,133.166 Z M820.212,163.364 L819.731,163.364 C811.275,174.718 799.68,183.172 779.147,183.172 C754.021,183.172 735.179,170.128 735.179,145.003 C735.179,115.772 757.406,108.768 788.085,105.144 C809.341,102.487 819.973,99.104 819.973,87.508 C819.973,76.396 812.241,68.906 796.78,68.906 C779.629,68.906 771.173,76.879 770.449,89.683 L741.46,89.683 C742.426,67.699 759.82,47.648 796.541,47.648 C811.275,47.648 822.63,49.822 831.086,55.138 C843.163,62.385 849.443,74.705 849.443,91.857 L849.443,159.74 C849.443,170.369 851.376,175.925 854.276,177.858 L854.276,180.032 L824.563,180.032 C822.388,177.132 820.697,172.061 820.212,163.364 L820.212,163.364 Z" id="Fill-7"></path>
            <path d="M859.717,222.552 L859.717,197.665 L861.408,197.665 C862.617,198.392 871.07,198.877 874.211,198.877 C884.601,198.877 890.396,195.011 893.053,184.622 C893.053,182.206 894.262,170.128 891.605,163.121 L847.156,51.031 L879.768,51.031 L901.025,110.941 C906.581,126.885 911.896,151.043 911.896,151.043 L912.38,151.043 C912.38,151.043 918.179,126.643 923.494,110.941 L944.026,51.031 L974.948,51.031 L924.942,187.279 C914.313,215.783 903.2,224 882.183,224 C878.317,224 861.889,223.273 859.717,222.552" id="Fill-8"></path>
            <path d="M999.414,180.695 C1000.62,177.81 1001.29,174.646 1001.29,171.324 C1001.29,157.869 990.38,146.961 976.924,146.961 C963.469,146.961 952.561,157.869 952.561,171.324 C952.561,174.646 953.231,177.81 954.435,180.695 L999.414,180.695" id="Fill-9"></path>
        </g>
    </g>
</svg>